M48
; DRILL file {KiCad 9.0.1} date 2025-04-30T18:15:50-0700
; FORMAT={-:-/ absolute / metric / decimal}
; #@! TF.CreationDate,2025-04-30T18:15:50-07:00
; #@! TF.GenerationSoftware,Kicad,Pcbnew,9.0.1
; #@! TF.FileFunction,Plated,1,2,PTH
FMAT,2
METRIC
; #@! TA.AperFunction,Plated,PTH,ViaDrill
T1C0.400
; #@! TA.AperFunction,Plated,PTH,ComponentDrill
T2C1.000
; #@! TA.AperFunction,Plated,PTH,ComponentDrill
T3C1.100
%
G90
G05
T1
X139.12Y-109.995
X155.12Y-111.995
X167.37Y-108.245
X169.62Y-105.245
X171.87Y-90.745
X171.87Y-101.995
X174.12Y-93.245
T2
X120.5Y-106.745
X120.5Y-110.745
X123.04Y-106.745
X123.04Y-110.745
X125.58Y-106.745
X125.58Y-110.745
X128.12Y-106.745
X128.12Y-110.745
X128.86Y-84.245
X128.86Y-114.725
X131.4Y-84.245
X131.4Y-114.725
X133.94Y-84.245
X133.94Y-114.725
X136.48Y-84.245
X136.48Y-114.725
X137.84Y-102.745
X137.86Y-96.075
X139.02Y-84.245
X139.02Y-114.725
X139.11Y-107.825
X139.13Y-90.995
X140.38Y-102.745
X140.4Y-96.075
X141.56Y-84.245
X141.56Y-114.725
X141.65Y-107.825
X141.67Y-90.995
X142.92Y-102.745
X142.94Y-96.075
X144.1Y-84.245
X144.1Y-114.725
X144.19Y-107.825
X144.21Y-90.995
X145.46Y-102.745
X145.48Y-96.075
X146.64Y-84.245
X146.64Y-114.725
X146.73Y-107.825
X146.75Y-90.995
X148.0Y-102.745
X148.02Y-96.075
X149.18Y-84.245
X149.18Y-114.725
X149.27Y-107.825
X149.29Y-90.995
X150.54Y-102.745
X150.56Y-96.075
X151.72Y-84.245
X151.72Y-114.725
X151.81Y-107.825
X151.83Y-90.995
X153.08Y-102.745
X153.1Y-96.075
X154.26Y-84.245
X154.26Y-114.725
X154.35Y-107.825
X154.37Y-90.995
X155.62Y-102.745
X155.64Y-96.075
X156.8Y-84.245
X156.8Y-114.725
X159.34Y-84.245
X159.34Y-114.725
X161.88Y-84.245
X161.88Y-114.725
X164.42Y-84.245
X164.42Y-114.725
X166.96Y-84.245
X166.96Y-114.725
X169.5Y-84.245
X169.5Y-114.725
X172.04Y-84.245
X172.04Y-114.725
X174.58Y-84.245
X174.58Y-114.725
X177.12Y-84.245
X177.12Y-89.955
X177.12Y-92.495
X177.12Y-105.705
X177.12Y-108.245
X177.12Y-114.725
X177.145Y-99.455
X177.145Y-101.995
T3
X122.62Y-91.705
X122.62Y-96.785
X128.62Y-91.745
X128.62Y-94.285
X128.62Y-96.825
M30
